<svg width="18" height="18" viewBox="0 0 18 18" fill="none" xmlns="http://www.w3.org/2000/svg">
<path d="M9.49802 0.769829C10.1091 0.767484 10.7202 0.773626 11.3311 0.788252L11.4935 0.794114C11.6811 0.800813 11.8662 0.809187 12.0898 0.819236C12.9808 0.861106 13.5887 1.00179 14.1221 1.20863C14.6748 1.42133 15.1404 1.70939 15.606 2.17499C16.0317 2.59336 16.3612 3.09943 16.5715 3.65802C16.7784 4.19144 16.9191 4.80023 16.9609 5.69123C16.971 5.91397 16.9793 6.09988 16.986 6.28745L16.9911 6.44991C17.006 7.06054 17.0124 7.67134 17.0103 8.28214L17.0112 8.90684V10.0038C17.0132 10.6149 17.0068 11.226 16.9919 11.8369L16.9869 11.9994C16.9802 12.1869 16.9718 12.372 16.9618 12.5956C16.9199 13.4866 16.7775 14.0945 16.5715 14.628C16.3619 15.1871 16.0323 15.6936 15.606 16.1118C15.1873 16.5375 14.6809 16.867 14.1221 17.0773C13.5887 17.2842 12.9808 17.4249 12.0898 17.4667C11.8662 17.4768 11.6811 17.4852 11.4935 17.4919L11.3311 17.4969C10.7202 17.5118 10.1091 17.5182 9.49802 17.5161L8.87332 17.517H7.77716C7.16608 17.519 6.555 17.5126 5.9441 17.4977L5.78164 17.4927C5.58285 17.4855 5.3841 17.4771 5.18541 17.4676C4.29442 17.4257 3.68647 17.2833 3.15221 17.0773C2.5934 16.8674 2.08723 16.5379 1.66917 16.1118C1.24297 15.6934 0.913188 15.187 0.702813 14.628C0.495976 14.0945 0.355292 13.4866 0.313422 12.5956C0.304096 12.3969 0.295722 12.1981 0.2883 11.9994L0.284114 11.8369C0.268675 11.226 0.261696 10.6149 0.263178 10.0038V8.28214C0.260841 7.67134 0.266983 7.06054 0.281601 6.44991L0.287463 6.28745C0.294162 6.09988 0.302536 5.91397 0.312585 5.69123C0.354455 4.7994 0.495138 4.19228 0.701976 3.65802C0.912475 3.09916 1.24291 2.59322 1.67001 2.17582C2.08778 1.74938 2.59363 1.41929 3.15221 1.20863C3.68647 1.00179 4.29358 0.861106 5.18541 0.819236L5.78164 0.794114L5.9441 0.789927C6.55471 0.774496 7.16552 0.767517 7.77633 0.768992L9.49802 0.769829ZM8.63717 4.95683C8.0824 4.94898 7.5316 5.05147 7.01679 5.25835C6.50197 5.46522 6.0334 5.77235 5.63832 6.16189C5.24323 6.55143 4.9295 7.0156 4.71537 7.52744C4.50124 8.03928 4.39096 8.58858 4.39096 9.1434C4.39096 9.69823 4.50124 10.2475 4.71537 10.7594C4.9295 11.2712 5.24323 11.7354 5.63832 12.1249C6.0334 12.5145 6.50197 12.8216 7.01679 13.0285C7.5316 13.2353 8.0824 13.3378 8.63717 13.33C9.74763 13.33 10.8126 12.8889 11.5978 12.1036C12.383 11.3184 12.8242 10.2534 12.8242 9.14299C12.8242 8.03253 12.383 6.96755 11.5978 6.18233C10.8126 5.39712 9.74763 4.95683 8.63717 4.95683ZM8.63717 6.63163C8.97088 6.62548 9.30247 6.68589 9.61257 6.80933C9.92267 6.93277 10.2051 7.11677 10.4433 7.35057C10.6815 7.58437 10.8707 7.8633 10.9998 8.17105C11.129 8.4788 11.1956 8.80921 11.1957 9.14298C11.1957 9.47674 11.1293 9.80718 11.0002 10.115C10.8711 10.4228 10.682 10.7018 10.4439 10.9356C10.2057 11.1695 9.92341 11.3536 9.61335 11.4772C9.30329 11.6007 8.97172 11.6612 8.63801 11.6552C7.97174 11.6552 7.33275 11.3905 6.86162 10.9194C6.39049 10.4483 6.12581 9.80926 6.12581 9.14299C6.12581 8.47671 6.39049 7.83772 6.86162 7.36659C7.33275 6.89546 7.97174 6.63079 8.63801 6.63079L8.63717 6.63163ZM13.0335 3.70073C12.7634 3.71154 12.5079 3.82646 12.3206 4.02143C12.1332 4.21639 12.0286 4.47627 12.0286 4.74664C12.0286 5.01701 12.1332 5.27689 12.3206 5.47185C12.5079 5.66682 12.7634 5.78174 13.0335 5.79255C13.3111 5.79255 13.5774 5.68227 13.7737 5.48597C13.97 5.28966 14.0803 5.02342 14.0803 4.7458C14.0803 4.46819 13.97 4.20194 13.7737 4.00564C13.5774 3.80933 13.3111 3.69905 13.0335 3.69905V3.70073Z" fill="white"/>
</svg>
