<svg width="298" height="180" viewBox="0 0 298 180" fill="none" xmlns="http://www.w3.org/2000/svg">
<path opacity="0.3" d="M0.0231628 40.9324C3.05194 42.1547 6.87341 42.0684 10.1354 41.616C13.4676 41.1886 16.5894 40.3541 19.7093 39.4201C25.9615 37.539 32.2366 35.1747 40.6477 33.5644C57.5541 30.2618 71.4774 37.6502 77.3806 40.2633C80.0639 41.4608 84.3239 43.4152 87.8507 45.2012L90.1306 46.3562C84.5553 40.8211 78.4399 37.8522 72.2421 35.5114C65.4391 32.9027 58.3381 31.143 50.3321 26.4131C45.0059 23.2232 41.1966 19.2237 39.3113 15.4848C37.3366 11.7694 37.3103 8.42719 37.9346 6.11564C38.4608 3.79531 39.9006 2.25964 40.7968 1.36665C41.7666 0.460471 42.4962 0.103271 42.4962 0.103271C43.7344 5.29584 47.9329 8.23981 52.3647 9.89552C56.9052 11.6186 61.8842 12.4003 67.94 14.4835C74.0116 16.5418 78.3715 20.408 81.3021 24.3797C84.2607 28.3616 85.7286 32.3815 86.7686 34.636C87.6946 36.6694 89.0485 39.9881 90.0078 42.8091C90.52 44.3946 90.9759 45.8058 91.2811 46.7471C101.219 47.9768 111.099 49.4866 120.92 51.2765C116.781 47.1102 112.47 44.3711 108.024 41.78C102.504 38.5242 96.6056 35.3987 91.5073 29.6615C84.7991 21.8251 85.2551 14.9783 87.1317 11.2467C89.0696 7.39659 92.0194 5.959 92.0194 5.959C93.2699 10.4225 96.4933 13.2787 100.103 15.5214C103.759 17.7905 107.819 19.4931 112.039 22.1486C116.248 24.7837 118.256 28.4977 119.478 32.3157C120.706 36.0985 121.027 39.8886 121.479 42.0332C121.955 44.3931 122.842 48.8025 123.437 51.7494C125.126 52.0685 126.813 52.3935 128.498 52.7331C130.836 52.8868 133.633 53.2601 135.808 53.9043C136.683 54.1756 137.538 54.4894 138.368 54.8441C140.336 55.2833 142.307 55.7225 144.266 56.1983C148.638 57.2757 152.983 58.441 157.311 59.6546C153.904 56.7916 150.207 54.1791 146.262 51.846C143.631 50.2576 141.001 48.7542 138.417 47.0838C135.787 45.3373 133.451 43.8119 130.646 40.9968C127.351 37.5697 126.048 34.9946 125.25 32.7519C124.499 30.5487 124.361 28.6529 124.229 26.8889C124.114 25.2566 124.015 23.614 123.938 22.3873C123.865 21.2249 123.903 20.4841 123.903 20.4841C129.24 22.6566 133.21 24.6607 137.665 26.5024L144.18 29.3556L147.32 30.7961C148.434 31.2742 149.504 31.8203 150.522 32.4298C155.099 35.1147 156.95 38.8711 157.928 42.5676C158.907 46.264 159.003 49.9033 159.398 52.0114C159.731 53.8794 160.336 56.9785 161.106 59.6546C161.218 60.0557 161.334 60.4393 161.457 60.814C172.546 64.0368 183.386 67.8287 193.914 72.1683C188.653 65.3215 183.867 60.4349 178.977 55.7064C173.579 50.4567 168.183 45.3915 163.74 38.4642C162.993 37.293 162.337 36.1673 161.73 35.0254C160.295 32.2227 159.335 29.2662 158.881 26.2418C158.435 23.1397 158.623 20.7579 158.859 18.6952C159.096 16.6325 159.461 14.9271 159.749 13.7047C159.89 13.0497 160.086 12.4036 160.333 11.7708C165.485 16.227 169.01 20.0596 173.191 23.6053C175.235 25.3883 177.258 27.0894 179.347 28.6719C181.713 30.5423 183.933 32.5373 185.994 34.6448C190.435 39.1903 191.988 44.1032 192.702 48.6531C193.383 53.1913 193.228 57.384 193.472 59.8844C193.697 62.0803 194.063 65.7504 194.628 68.8745C194.875 70.3647 195.142 71.7218 195.357 72.748C200.929 75.0903 206.389 77.619 211.738 80.3341C216.14 82.549 220.426 84.9323 224.626 87.4181C220.179 70.2564 210.105 62.6337 202.295 48.6239C196.806 38.8638 196.127 31.9775 196.841 27.2988C197.534 22.6522 199.733 20.3041 199.733 20.3041C206.561 31.3817 216.187 35.3211 225.024 46.4499C233.765 57.6095 229.544 69.8582 228.569 75.042C227.916 78.409 226.482 84.7991 225.74 88.071C234.292 93.197 242.328 98.898 249.767 105.117C250.819 97.752 248.821 91.3136 246.555 85.272C243.969 78.2056 240.317 71.1963 239.891 61.4362C239.325 49.5505 243.102 42.329 246.668 38.4525C250.27 34.5335 253.699 33.6669 253.699 33.6669C252.794 40.0701 254.113 45.188 255.979 50.2254C256.966 52.7141 258.039 55.4151 259.044 57.952C260.13 60.6633 261.038 63.6058 262.062 66.2745C264.137 72.2195 263.816 78.0841 262.504 83.281C261.193 88.478 258.867 92.7073 257.641 95.2121C256.209 98.1563 254.558 101.023 252.697 103.795C252.099 104.684 251.522 105.48 251.001 106.173C256.548 110.877 261.708 115.888 266.445 121.173C268.461 123.453 270.396 125.786 272.25 128.171C271.936 123.239 272.02 118.875 272.12 114.782C272.326 109.365 272.564 104.43 273.01 99.5951C273.441 94.7773 274.042 89.9624 275.054 85.1841C275.972 80.6459 276.984 75.8237 278.872 70.4496C281.379 63.3013 284.9 57.6095 288.741 53.5573C292.568 49.4832 296.584 47.0867 299.856 45.8131C303.204 44.5556 305.758 44.3302 307.484 44.4048C309.179 44.4604 310.007 44.7415 310.007 44.7415C303.073 49.8829 300.807 56.1499 299.69 62.1623C298.571 68.3006 298.667 74.5735 297.341 82.7174C295.879 91.2316 292.175 97.1123 288.772 102.419C285.326 107.635 281.845 111.976 280.179 114.852C278.665 117.383 276.342 121.657 274.881 125.643C274.309 127.146 273.858 128.594 273.516 129.815C277.903 135.567 281.712 141.611 284.905 147.887C286.332 150.695 287.639 153.538 288.827 156.416C288.827 156.204 288.827 155.99 288.827 155.779C288.92 151.427 289.225 147.268 289.937 143.113C290.582 138.778 291.661 134.495 293.162 130.31C294.741 125.886 296.91 121.233 300.326 116.329C303.576 111.626 307.901 107.501 313.055 104.189C317.391 101.421 322.212 99.2265 327.347 97.6817C336.549 94.9237 344.287 94.6777 348.834 94.4772C352.912 94.2634 359.429 94.3952 364.467 95.2091C369.576 95.9543 372.914 97.2748 372.914 97.2748C365.758 96.717 358.324 98.342 352.142 100.611C346.191 102.815 340.648 105.719 335.683 109.234C325.96 115.982 319.697 123.544 312.676 133.955C303.522 147.785 299.139 156.104 295.738 161.61C294.437 163.863 293.32 165.642 292.475 166.977C293.468 170.542 294.188 174.157 294.63 177.798V177.809C294.674 178.211 294.525 178.611 294.215 178.922C293.906 179.232 293.462 179.427 292.98 179.464C292.499 179.501 292.02 179.377 291.649 179.12C291.277 178.862 291.043 178.492 290.998 178.091L290.984 177.956C290.67 175.196 290.184 172.451 289.528 169.732L288.562 169.182L286.571 168.435C285.251 167.908 283.873 167.487 282.457 167.178C281.019 166.844 279.679 166.466 278.204 166.257C272.475 165.255 266.87 164.939 261.354 164.86C250.305 164.695 239.505 165.446 226.319 164.639C208.74 163.587 198.237 159.875 192.501 156.503C186.731 153.045 185.568 150.118 185.568 150.118C205.056 152.912 216.696 147.854 237.355 147.12C258.16 146.242 273.569 155.724 279.758 159.651C282.227 161.115 285.838 163.587 288.543 165.989C286.83 160.183 284.569 154.5 281.778 148.993C281.194 147.799 280.581 146.617 279.939 145.445C277.308 143.184 273.936 141.521 270.284 140.565C264.698 139.013 258.837 138.691 253.039 138.924C247.125 139.123 241.64 139.913 234.635 140.452C228.449 140.891 222.103 141.436 214.854 141.756C195.563 142.768 182.862 140.171 176.096 137.086C172.662 135.562 170.587 134.041 169.368 132.897C168.149 131.752 167.762 131.045 167.762 131.045C178.551 132.178 187.143 130.736 195.627 128.913C204.158 127.072 212.683 124.622 224.389 123.245C227.236 122.914 230.109 122.757 232.983 122.776C234.453 122.787 235.579 122.81 236.736 122.869C237.992 122.914 239.216 122.984 240.493 123.081C245.359 123.429 250.161 124.249 254.8 125.524C261.404 127.382 267.5 130.318 272.732 134.161C272.831 134.229 272.939 134.308 273.039 134.384C270.233 130.374 267.189 126.487 263.906 122.724C260.705 119.074 257.261 115.578 253.658 112.201C243.39 109.63 233.637 110.337 224.731 111.589C214.123 113.093 204.016 115.728 190.456 116.584C182.676 117.074 175.292 117.26 169.41 116.487C163.465 115.755 158.888 114.284 155.778 112.593C152.669 110.903 151.02 109.14 150.245 107.849C149.47 106.558 149.41 105.826 149.41 105.826C153.619 107.143 157.904 107.187 161.802 106.733C165.729 106.279 169.368 105.357 173.027 104.291C176.685 103.226 180.336 101.986 184.528 100.838C186.569 100.252 189.074 99.7561 191.115 99.2642C193.191 98.7841 195.454 98.2922 197.874 97.8369C207.536 95.9689 216.794 96.5194 224.423 98.1297C232.066 99.7005 237.888 102.324 241.326 103.779C242.988 104.439 245.128 105.43 247.308 106.541C238.935 99.4966 229.796 93.1166 220.009 87.484C216.191 85.8356 211.278 85.5033 206.766 86.0508C201.301 86.7447 196.229 88.3448 191.39 90.3547C188.965 91.34 186.576 92.4526 184.093 93.5944L180.112 95.3877L176.129 97.0596C170.813 99.2554 165.036 101.481 158.135 103.258C148.972 105.643 140.627 106.132 134.052 105.376C127.426 104.634 122.679 102.614 119.671 100.746C118.41 99.8973 117.251 98.9475 116.211 97.9101C115.549 97.1618 114.981 96.3594 114.513 95.5151C113.801 94.1976 113.743 93.4466 113.743 93.4466C122.672 96.6672 130.803 95.4375 137.781 93.1304C144.915 90.7734 151.397 87.3083 160.364 83.4933C164.603 81.6816 169.075 80.2766 173.693 79.305C177.814 78.3827 182.462 77.6712 186.566 77.4985C193.932 77.1325 200.042 78.1748 204.002 79.0576C195.195 74.8502 186.091 71.0922 176.739 67.8043C168.728 68.1981 162.3 71.2431 156.699 74.7024C150.094 78.8014 142.991 84.1974 132.404 87.585C125.361 89.8541 119.163 90.4206 114.294 90.1425C109.426 89.8643 105.78 88.7854 103.179 87.604C100.851 86.5207 99.3485 85.3686 98.3523 84.4112C97.154 84.7978 95.9192 85.1004 94.6606 85.3159C90.0201 86.143 86.1829 85.5604 83.6469 84.5517C81.0758 83.5518 79.6483 82.2197 78.8257 81.2096C78.0032 80.1994 77.7735 79.526 77.7735 79.526C83.8082 79.6812 87.8349 76.8382 90.4481 73.6191C93.119 70.3647 95.0956 66.3638 98.8872 62.0716C102.097 58.0648 107.719 55.1545 113.063 53.8735C115.336 53.3057 117.673 52.9387 120.038 52.7785C114.046 51.6513 108.024 50.6343 101.974 49.7277C95.2972 51.2707 90.7953 54.8983 86.9335 58.7528C82.5701 63.0158 78.6083 68.0912 70.6479 72.2825C65.3549 75.0039 60.2024 76.159 56.0687 76.1326C51.9508 76.2673 48.7852 75.2352 46.5685 74.2588C42.0893 72.0029 40.9003 69.3619 40.9003 69.3619C46.6737 69.0574 50.8038 66.8059 54.0396 64.0918C57.3174 61.3103 59.6376 58.0311 63.1855 54.5938C66.6931 51.1462 71.6528 49.3002 76.7019 48.3574C80.0867 47.7148 83.3575 47.5801 85.9654 47.5581C84.5764 47.3912 83.1891 47.2156 81.8001 47.0575C75.0972 46.794 69.1098 47.3429 63.3364 48.1525C54.2027 49.4363 45.5548 51.42 34.6235 52.1929C20.1197 53.2484 10.3178 50.8183 4.93024 47.5171C2.2645 45.8819 0.826385 44.1794 0.356354 42.8662C-0.131195 41.6058 0.0231628 40.9324 0.0231628 40.9324ZM115.01 77.8308C120.143 75.1767 124.685 71.956 130.603 68.507C133.409 66.8626 136.473 65.5484 139.708 64.6012C142.842 63.6605 146.095 63.022 149.403 62.6981C153.814 62.2502 157.795 62.48 160.894 62.805C160.804 62.723 160.71 62.6308 160.622 62.5503C155.019 60.8755 149.369 59.3208 143.672 57.8862C141.23 57.2801 138.775 56.715 136.318 56.1514C134.401 56.5444 132.582 57.2164 130.945 58.1365C128.074 59.7161 125.738 61.7963 123.63 64.0157C121.522 66.235 119.626 68.649 117.388 71.1889C116.183 72.576 114.889 73.9072 113.51 75.1767C112.06 76.5038 110.523 77.7623 108.905 78.9463C107.624 79.8854 106.272 80.7544 104.857 81.5477C108.635 80.7396 111.939 79.4001 115.01 77.8308Z" fill="#FFEAEA"/>
</svg>
