<svg width="295" height="180" viewBox="0 0 295 180" fill="none" xmlns="http://www.w3.org/2000/svg">
<path opacity="0.3" d="M294.891 40.9324C291.862 42.1547 288.041 42.0684 284.779 41.616C281.446 41.1886 278.325 40.3541 275.205 39.4201C268.953 37.539 262.677 35.1747 254.266 33.5644C237.36 30.2618 223.437 37.6502 217.533 40.2633C214.85 41.4608 210.59 43.4152 207.063 45.2012L204.783 46.3562C210.359 40.8211 216.474 37.8522 222.672 35.5114C229.475 32.9027 236.576 31.143 244.582 26.4131C249.908 23.2232 253.717 19.2237 255.603 15.4848C257.577 11.7694 257.604 8.42719 256.979 6.11564C256.453 3.79531 255.013 2.25964 254.117 1.36665C253.147 0.460471 252.418 0.103271 252.418 0.103271C251.18 5.29584 246.981 8.23981 242.549 9.89552C238.009 11.6186 233.03 12.4003 226.974 14.4835C220.902 16.5418 216.543 20.408 213.612 24.3797C210.653 28.3616 209.185 32.3815 208.145 34.636C207.219 36.6694 205.866 39.9881 204.906 42.8091C204.394 44.3946 203.938 45.8058 203.633 46.7471C193.695 47.9768 183.815 49.4866 173.994 51.2765C178.133 47.1102 182.444 44.3711 186.89 41.78C192.411 38.5242 198.309 35.3987 203.407 29.6615C210.115 21.8251 209.659 14.9783 207.782 11.2467C205.844 7.39659 202.895 5.959 202.895 5.959C201.644 10.4225 198.421 13.2787 194.811 15.5214C191.155 17.7905 187.095 19.4931 182.875 22.1486C178.666 24.7837 176.658 28.4977 175.436 32.3157C174.208 36.0985 173.887 39.8886 173.435 42.0332C172.959 44.3931 172.072 48.8025 171.477 51.7494C169.789 52.0685 168.101 52.3935 166.416 52.7331C164.078 52.8868 161.281 53.2601 159.106 53.9043C158.231 54.1756 157.377 54.4894 156.546 54.8441C154.578 55.2833 152.607 55.7225 150.648 56.1983C146.276 57.2757 141.932 58.441 137.603 59.6546C141.011 56.7916 144.707 54.1791 148.652 51.846C151.283 50.2576 153.913 48.7542 156.497 47.0838C159.127 45.3373 161.463 43.8119 164.268 40.9968C167.563 37.5697 168.866 34.9946 169.664 32.7519C170.415 30.5487 170.553 28.6529 170.685 26.8889C170.8 25.2566 170.899 23.614 170.976 22.3873C171.049 21.2249 171.011 20.4841 171.011 20.4841C165.674 22.6566 161.704 24.6607 157.249 26.5024L150.734 29.3556L147.594 30.7961C146.48 31.2742 145.41 31.8203 144.392 32.4298C139.815 35.1147 137.964 38.8711 136.986 42.5676C136.007 46.264 135.911 49.9033 135.516 52.0114C135.183 53.8794 134.578 56.9785 133.808 59.6546C133.696 60.0557 133.58 60.4393 133.457 60.814C122.368 64.0368 111.528 67.8287 101 72.1683C106.261 65.3215 111.047 60.4349 115.937 55.7064C121.335 50.4567 126.731 45.3915 131.174 38.4642C131.921 37.293 132.577 36.1673 133.184 35.0254C134.619 32.2227 135.579 29.2662 136.034 26.2418C136.479 23.1397 136.291 20.7579 136.055 18.6952C135.818 16.6325 135.453 14.9271 135.165 13.7047C135.024 13.0497 134.829 12.4036 134.581 11.7708C129.429 16.227 125.904 20.0596 121.723 23.6053C119.68 25.3883 117.656 27.0894 115.567 28.6719C113.201 30.5423 110.981 32.5373 108.92 34.6448C104.48 39.1903 102.926 44.1032 102.212 48.6531C101.531 53.1913 101.686 57.384 101.442 59.8844C101.217 62.0803 100.851 65.7504 100.286 68.8745C100.039 70.3647 99.7724 71.7218 99.5567 72.748C93.9855 75.0903 88.5254 77.619 83.1764 80.3341C78.7744 82.549 74.4881 84.9323 70.2878 87.4181C74.7354 70.2564 84.8091 62.6337 92.6187 48.6239C98.108 38.8638 98.7868 31.9775 98.073 27.2988C97.3802 22.6522 95.181 20.3041 95.181 20.3041C88.3535 31.3817 78.727 35.3211 69.8897 46.4499C61.1489 57.6095 65.3702 69.8582 66.3453 75.042C66.9977 78.409 68.4323 84.7991 69.1742 88.071C60.6222 93.197 52.5865 98.898 45.1474 105.117C44.0951 97.752 46.0927 91.3136 48.3586 85.272C50.9454 78.2056 54.5968 71.1963 55.0229 61.4362C55.5894 49.5505 51.8118 42.329 48.2463 38.4525C44.6441 34.5335 41.2154 33.6669 41.2154 33.6669C42.1204 40.0701 40.8015 45.188 38.9355 50.2254C37.9481 52.7141 36.8748 55.4151 35.8699 57.952C34.7843 60.6633 33.8759 63.6058 32.8516 66.2745C30.7769 72.2195 31.0979 78.0841 32.4097 83.281C33.7215 88.478 36.047 92.7073 37.2729 95.2121C38.705 98.1563 40.3562 101.023 42.2168 103.795C42.8149 104.684 43.3919 105.48 43.9127 106.173C38.3657 110.877 33.206 115.888 28.469 121.173C26.4533 123.453 24.5183 125.786 22.6639 128.171C22.9779 123.239 22.8937 118.875 22.7937 114.782C22.5885 109.365 22.35 104.43 21.9046 99.5951C21.4731 94.7773 20.8716 89.9624 19.8597 85.1841C18.9424 80.6459 17.9305 75.8237 16.0417 70.4496C13.5355 63.3013 10.0139 57.6095 6.17315 53.5573C2.34641 49.4832 -1.66975 47.0867 -4.94231 45.8131C-8.29027 44.5556 -10.8438 44.3302 -12.5695 44.4048C-14.2654 44.4604 -15.0932 44.7415 -15.0932 44.7415C-8.15874 49.8829 -5.89285 56.1499 -4.7757 62.1623C-3.65678 68.3006 -3.75323 74.5735 -2.42738 82.7174C-0.964729 91.2316 2.73925 97.1123 6.14159 102.419C9.58776 107.635 13.069 111.976 14.7351 114.852C16.2486 117.383 18.5724 121.657 20.0333 125.643C20.605 127.146 21.0557 128.594 21.3977 129.815C17.011 135.567 13.2017 141.611 10.0087 147.887C8.58226 150.695 7.27511 153.538 6.08722 156.416C6.08722 156.204 6.08722 155.99 6.08722 155.779C5.99427 151.427 5.68911 147.268 4.97708 143.113C4.33185 138.778 3.25301 134.495 1.75188 130.31C0.17347 125.886 -1.99596 121.233 -5.41232 116.329C-8.66174 111.626 -12.9866 107.501 -18.1412 104.189C-22.4774 101.421 -27.2975 99.2265 -32.4328 97.6817C-41.6349 94.9237 -49.3726 94.6777 -53.9201 94.4772C-57.9977 94.2634 -64.5147 94.3952 -69.5533 95.2091C-74.6621 95.9543 -77.9995 97.2748 -77.9995 97.2748C-70.8441 96.717 -63.4098 98.342 -57.2277 100.611C-51.2767 102.815 -45.7342 105.719 -40.7685 109.234C-31.0456 115.982 -24.7828 123.544 -17.7624 133.955C-8.6077 147.785 -4.22501 156.104 -0.824425 161.61C0.476875 163.863 1.59404 165.642 2.43936 166.977C1.44646 170.542 0.726532 174.157 0.283958 177.798V177.809C0.240082 178.211 0.389244 178.611 0.698677 178.922C1.00811 179.232 1.45251 179.427 1.93427 179.464C2.41506 179.501 2.89365 179.377 3.26514 179.12C3.63662 178.862 3.87069 178.492 3.91604 178.091L3.93007 177.956C4.24404 175.196 4.72991 172.451 5.3857 169.732L6.35204 169.182L8.34258 168.435C9.66344 167.908 11.041 167.487 12.4569 167.178C13.8951 166.844 15.2349 166.466 16.7099 166.257C22.4395 165.255 28.0445 164.939 33.5602 164.86C44.609 164.695 55.4088 165.446 68.5954 164.639C86.1736 163.587 96.677 159.875 102.414 156.503C108.184 153.045 109.346 150.118 109.346 150.118C89.8583 152.912 78.2184 147.854 57.5589 147.12C36.7538 146.242 21.3451 155.724 15.156 159.651C12.6867 161.115 9.07566 163.587 6.37133 165.989C8.08361 160.183 10.3455 154.5 13.1357 148.993C13.7203 147.799 14.3335 146.617 14.9754 145.445C17.606 143.184 20.9786 141.521 24.6299 140.565C30.2157 139.013 36.0769 138.691 41.8748 138.924C47.7886 139.123 53.2744 139.913 60.279 140.452C66.4646 140.891 72.8115 141.436 80.0599 141.756C99.3515 142.768 112.052 140.171 118.818 137.086C122.252 135.562 124.327 134.041 125.546 132.897C126.765 131.752 127.152 131.045 127.152 131.045C116.363 132.178 107.771 130.736 99.2866 128.913C90.7562 127.072 82.2311 124.622 70.5246 123.245C67.6777 122.914 64.8055 122.757 61.9311 122.776C60.4614 122.787 59.3355 122.81 58.178 122.869C56.9223 122.914 55.6982 122.984 54.4214 123.081C49.5547 123.429 44.7532 124.249 40.1141 125.524C33.5096 127.382 27.4138 130.318 22.1817 134.161C22.0835 134.229 21.9747 134.308 21.8747 134.384C24.6808 130.374 27.7254 126.487 31.0084 122.724C34.2091 119.074 37.6535 115.578 41.2558 112.201C51.5241 109.63 61.2769 110.337 70.1826 111.589C80.7912 113.093 90.8983 115.728 104.458 116.584C112.238 117.074 119.622 117.26 125.504 116.487C131.449 115.755 136.027 114.284 139.136 112.593C142.245 110.903 143.894 109.14 144.669 107.849C145.444 106.558 145.504 105.826 145.504 105.826C141.295 107.143 137.01 107.187 133.112 106.733C129.185 106.279 125.546 105.357 121.888 104.291C118.229 103.226 114.578 101.986 110.386 100.838C108.345 100.252 105.84 99.7561 103.799 99.2642C101.723 98.7841 99.4602 98.2922 97.04 97.8369C87.3784 95.9689 78.1202 96.5194 70.4913 98.1297C62.8483 99.7005 57.0258 102.324 53.5883 103.779C51.9258 104.439 49.7861 105.43 47.6062 106.541C55.9789 99.4966 65.118 93.1166 74.9055 87.484C78.7235 85.8356 83.6358 85.5033 88.1483 86.0508C93.6131 86.7447 98.685 88.3448 103.524 90.3547C105.949 91.34 108.338 92.4526 110.821 93.5944L114.802 95.3877L118.785 97.0596C124.101 99.2554 129.878 101.481 136.779 103.258C145.942 105.643 154.287 106.132 160.862 105.376C167.488 104.634 172.235 102.614 175.243 100.746C176.505 99.8973 177.663 98.9475 178.703 97.9101C179.365 97.1618 179.933 96.3594 180.401 95.5151C181.113 94.1976 181.171 93.4466 181.171 93.4466C172.242 96.6672 164.112 95.4375 157.133 93.1304C149.999 90.7734 143.517 87.3083 134.55 83.4933C130.311 81.6816 125.839 80.2766 121.221 79.305C117.1 78.3827 112.452 77.6712 108.348 77.4985C100.982 77.1325 94.8723 78.1748 90.9123 79.0576C99.7191 74.8502 108.823 71.0922 118.175 67.8043C126.186 68.1981 132.614 71.2431 138.215 74.7024C144.82 78.8014 151.923 84.1974 162.51 87.585C169.554 89.8541 175.751 90.4206 180.62 90.1425C185.488 89.8643 189.134 88.7854 191.735 87.604C194.063 86.5207 195.566 85.3686 196.562 84.4112C197.76 84.7978 198.995 85.1004 200.253 85.3159C204.894 86.143 208.731 85.5604 211.267 84.5517C213.838 83.5518 215.266 82.2197 216.088 81.2096C216.911 80.1994 217.141 79.526 217.141 79.526C211.106 79.6812 207.079 76.8382 204.466 73.6191C201.795 70.3647 199.819 66.3638 196.027 62.0716C192.817 58.0648 187.195 55.1545 181.851 53.8735C179.578 53.3057 177.241 52.9387 174.876 52.7785C180.868 51.6513 186.89 50.6343 192.94 49.7277C199.617 51.2707 204.119 54.8983 207.981 58.7528C212.344 63.0158 216.306 68.0912 224.266 72.2825C229.559 75.0039 234.712 76.159 238.845 76.1326C242.963 76.2673 246.129 75.2352 248.346 74.2588C252.825 72.0029 254.014 69.3619 254.014 69.3619C248.24 69.0574 244.11 66.8059 240.875 64.0918C237.597 61.3103 235.276 58.0311 231.729 54.5938C228.221 51.1462 223.261 49.3002 218.212 48.3574C214.827 47.7148 211.557 47.5801 208.949 47.5581C210.338 47.3912 211.725 47.2156 213.114 47.0575C219.817 46.794 225.804 47.3429 231.578 48.1525C240.711 49.4363 249.359 51.42 260.291 52.1929C274.794 53.2484 284.596 50.8183 289.984 47.5171C292.65 45.8819 294.088 44.1794 294.558 42.8662C295.045 41.6058 294.891 40.9324 294.891 40.9324ZM179.904 77.8308C174.771 75.1767 170.229 71.956 164.311 68.507C161.505 66.8626 158.441 65.5484 155.206 64.6012C152.072 63.6605 148.819 63.022 145.511 62.6981C141.1 62.2502 137.119 62.48 134.02 62.805C134.11 62.723 134.204 62.6308 134.292 62.5503C139.895 60.8755 145.545 59.3208 151.242 57.8862C153.684 57.2801 156.139 56.715 158.596 56.1514C160.513 56.5444 162.332 57.2164 163.969 58.1365C166.84 59.7161 169.176 61.7963 171.285 64.0157C173.393 66.235 175.288 68.649 177.526 71.1889C178.731 72.576 180.025 73.9072 181.404 75.1767C182.854 76.5038 184.391 77.7623 186.009 78.9463C187.29 79.8854 188.642 80.7544 190.057 81.5477C186.279 80.7396 182.975 79.4001 179.904 77.8308Z" fill="#FFEAEA"/>
</svg>
