<svg width="17" height="16" viewBox="0 0 17 16" fill="none" xmlns="http://www.w3.org/2000/svg">
<path d="M3.50975 2.28159C3.50953 2.72578 3.33287 3.15168 3.01863 3.46561C2.70438 3.77954 2.2783 3.95578 1.83412 3.95556C1.38993 3.95533 0.96403 3.77867 0.650102 3.46443C0.336173 3.15018 0.159934 2.7241 0.160156 2.27992C0.160379 1.83573 0.337043 1.40983 0.651286 1.0959C0.965529 0.781974 1.39161 0.605735 1.83579 0.605957C2.27998 0.606179 2.70588 0.782844 3.01981 1.09709C3.33374 1.41133 3.50998 1.83741 3.50975 2.28159ZM3.56 5.19574H0.2104V15.68H3.56V5.19574ZM8.85236 5.19574H5.51951V15.68H8.81887V10.1783C8.81887 7.11339 12.8133 6.82867 12.8133 10.1783V15.68H16.121V9.03941C16.121 3.87265 10.209 4.06525 8.81887 6.60257L8.85236 5.19574Z" fill="white"/>
</svg>
