<svg width="32" height="32" viewBox="0 0 32 32" fill="none" xmlns="http://www.w3.org/2000/svg">
<path d="M15.8198 3.26261C19.9573 3.26261 20.5215 3.26261 22.2141 3.26261C23.7187 3.26261 24.4709 3.63874 25.0351 3.82681C25.7874 4.20294 26.3516 4.39101 26.9158 4.95522C27.48 5.51942 27.8562 6.08362 28.0442 6.83589C28.2323 7.4001 28.4204 8.15237 28.6084 9.65691C28.6084 11.3495 28.6084 11.7257 28.6084 16.0512C28.6084 20.3768 28.6084 20.7529 28.6084 22.4455C28.6084 23.9501 28.2323 24.7023 28.0442 25.2665C27.6681 26.0188 27.48 26.583 26.9158 27.1472C26.3516 27.7114 25.7874 28.0875 25.0351 28.2756C24.4709 28.4637 23.7187 28.6517 22.2141 28.8398C20.5215 28.8398 20.1454 28.8398 15.8198 28.8398C11.4943 28.8398 11.1181 28.8398 9.42552 28.8398C7.92098 28.8398 7.16871 28.4637 6.60451 28.2756C5.85224 27.8995 5.28803 27.7114 4.72383 27.1472C4.15963 26.583 3.78349 26.0188 3.59542 25.2665C3.40736 24.7023 3.21929 23.9501 3.03122 22.4455C3.03122 20.7529 3.03122 20.3768 3.03122 16.0512C3.03122 11.7257 3.03122 11.3495 3.03122 9.65691C3.03122 8.15237 3.40736 7.4001 3.59542 6.83589C3.97156 6.08362 4.15963 5.51942 4.72383 4.95522C5.28803 4.39101 5.85224 4.01488 6.60451 3.82681C7.16871 3.63874 7.92098 3.45067 9.42552 3.26261C11.1181 3.26261 11.6823 3.26261 15.8198 3.26261ZM15.8198 0.441589C11.4943 0.441589 11.1181 0.441589 9.42552 0.441589C7.73292 0.441589 6.60451 0.817726 5.66417 1.19386C4.72383 1.57 3.78349 2.1342 2.84315 3.07454C1.90282 4.01488 1.52668 4.76715 0.962477 5.89555C0.586342 6.83589 0.398273 7.9643 0.210205 9.65691C0.210205 11.3495 0.210205 11.9137 0.210205 16.0512C0.210205 20.3768 0.210205 20.7529 0.210205 22.4455C0.210205 24.1381 0.586342 25.2665 0.962477 26.2069C1.33861 27.1472 1.90282 28.0875 2.84315 29.0279C3.78349 29.9682 4.53576 30.3444 5.66417 30.9086C6.60451 31.2847 7.73292 31.4728 9.42552 31.6608C11.1181 31.6608 11.6823 31.6608 15.8198 31.6608C19.9573 31.6608 20.5215 31.6608 22.2141 31.6608C23.9067 31.6608 25.0351 31.2847 25.9755 30.9086C26.9158 30.5324 27.8562 29.9682 28.7965 29.0279C29.7368 28.0875 30.113 27.3353 30.6772 26.2069C31.0533 25.2665 31.2414 24.1381 31.4294 22.4455C31.4294 20.7529 31.4294 20.1887 31.4294 16.0512C31.4294 11.9137 31.4294 11.3495 31.4294 9.65691C31.4294 7.9643 31.0533 6.83589 30.6772 5.89555C30.301 4.95522 29.7368 4.01488 28.7965 3.07454C27.8562 2.1342 27.1039 1.75806 25.9755 1.19386C25.0351 0.817726 23.9067 0.629657 22.2141 0.441589C20.5215 0.441589 20.1454 0.441589 15.8198 0.441589Z" fill="white"/>
<path d="M15.8198 7.9643C11.3062 7.9643 7.73291 11.5376 7.73291 16.0512C7.73291 20.5648 11.3062 24.1381 15.8198 24.1381C20.3335 24.1381 23.9067 20.5648 23.9067 16.0512C23.9067 11.5376 20.3335 7.9643 15.8198 7.9643ZM15.8198 21.3171C12.9988 21.3171 10.5539 19.0603 10.5539 16.0512C10.5539 13.2302 12.8107 10.7853 15.8198 10.7853C18.6408 10.7853 21.0857 13.0421 21.0857 16.0512C21.0857 18.8722 18.6408 21.3171 15.8198 21.3171Z" fill="white"/>
<path d="M24.0948 9.65691C25.1335 9.65691 25.9755 8.8149 25.9755 7.77623C25.9755 6.73756 25.1335 5.89555 24.0948 5.89555C23.0561 5.89555 22.2141 6.73756 22.2141 7.77623C22.2141 8.8149 23.0561 9.65691 24.0948 9.65691Z" fill="white"/>
</svg>
