<svg width="16" height="21" viewBox="0 0 16 21" fill="none" xmlns="http://www.w3.org/2000/svg">
<path d="M7.88911 10.874C8.42383 10.874 8.88174 10.678 9.26286 10.286C9.64332 9.89469 9.83355 9.42402 9.83355 8.87402C9.83355 8.32402 9.64332 7.85302 9.26286 7.46102C8.88174 7.06969 8.42383 6.87402 7.88911 6.87402C7.35438 6.87402 6.89679 7.06969 6.51633 7.46102C6.13522 7.85302 5.94466 8.32402 5.94466 8.87402C5.94466 9.42402 6.13522 9.89469 6.51633 10.286C6.89679 10.678 7.35438 10.874 7.88911 10.874ZM7.88911 20.874C5.28031 18.5907 3.33198 16.4697 2.04411 14.511C0.755587 12.553 0.111328 10.7407 0.111328 9.07402C0.111328 6.57402 0.893319 4.58236 2.4573 3.09902C4.02063 1.61569 5.83124 0.874023 7.88911 0.874023C9.94698 0.874023 11.7576 1.61569 13.3209 3.09902C14.8849 4.58236 15.6669 6.57402 15.6669 9.07402C15.6669 10.7407 15.0229 12.553 13.7351 14.511C12.4466 16.4697 10.4979 18.5907 7.88911 20.874Z" fill="white"/>
</svg>
