<svg width="21" height="18" viewBox="0 0 21 18" fill="none" xmlns="http://www.w3.org/2000/svg">
<path d="M18.1113 4.65367L10.1113 9.92876L2.11133 4.65367V2.54363L10.1113 7.81872L18.1113 2.54363M18.1113 0.433594H2.11133C1.00133 0.433594 0.111328 1.37256 0.111328 2.54363V15.2039C0.111328 15.7635 0.322042 16.3002 0.697114 16.6959C1.07219 17.0916 1.5809 17.3139 2.11133 17.3139H18.1113C18.6418 17.3139 19.1505 17.0916 19.5255 16.6959C19.9006 16.3002 20.1113 15.7635 20.1113 15.2039V2.54363C20.1113 1.98401 19.9006 1.44732 19.5255 1.05161C19.1505 0.6559 18.6418 0.433594 18.1113 0.433594Z" fill="white"/>
</svg>
