<svg width="21" height="21" viewBox="0 0 21 21" fill="none" xmlns="http://www.w3.org/2000/svg">
<path d="M19.0002 10.874C18.7039 10.874 18.4402 10.7674 18.2091 10.554C17.9773 10.3414 17.8428 10.0777 17.8058 9.76291C17.565 8.04069 16.8384 6.57291 15.6258 5.35958C14.4124 4.14699 12.9447 3.42032 11.2224 3.17958C10.9076 3.14254 10.6439 3.01291 10.4313 2.79069C10.218 2.56847 10.1113 2.29995 10.1113 1.98513C10.1113 1.67032 10.2224 1.40625 10.4447 1.19291C10.6669 0.98032 10.9261 0.892542 11.2224 0.929579C13.5558 1.18884 15.5465 2.14254 17.1947 3.79069C18.8428 5.43884 19.7965 7.42958 20.0558 9.76291C20.0928 10.0592 20.0047 10.3185 19.7913 10.5407C19.5787 10.7629 19.315 10.874 19.0002 10.874ZM14.3613 10.874C14.1206 10.874 13.9076 10.7907 13.7224 10.624C13.5373 10.4574 13.3984 10.2351 13.3058 9.95736C13.1576 9.42032 12.8754 8.94328 12.4591 8.52625C12.0421 8.10995 11.565 7.82773 11.028 7.67958C10.7502 7.58699 10.528 7.4481 10.3613 7.26291C10.1947 7.07773 10.1113 6.8555 10.1113 6.59625C10.1113 6.22587 10.241 5.92476 10.5002 5.69291C10.7595 5.4618 11.0465 5.38328 11.3613 5.45736C12.3984 5.6981 13.2921 6.19328 14.0424 6.94291C14.7921 7.69328 15.2873 8.58699 15.528 9.62402C15.6021 9.93884 15.5187 10.2259 15.278 10.4851C15.0373 10.7444 14.7317 10.874 14.3613 10.874ZM18.9447 20.874C16.5558 20.874 14.2273 20.3414 11.9591 19.2762C9.69022 18.2118 7.68096 16.8044 5.93133 15.054C4.18096 13.3044 2.77355 11.2951 1.70911 9.02625C0.643921 6.7581 0.111328 4.42958 0.111328 2.04069C0.111328 1.70736 0.222439 1.42958 0.444661 1.20736C0.666884 0.985134 0.944662 0.874023 1.278 0.874023H5.778C6.03725 0.874023 6.26874 0.957357 6.47244 1.12402C6.67614 1.29069 6.79651 1.50365 6.83355 1.76291L7.55577 5.6518C7.59281 5.91106 7.58837 6.14699 7.54244 6.35958C7.49577 6.57291 7.38911 6.76291 7.22244 6.92958L4.55577 9.6518C5.33355 10.9851 6.30577 12.2351 7.47244 13.4018C8.63911 14.5685 9.92614 15.5777 11.3336 16.4296L13.9447 13.8185C14.1113 13.6518 14.3291 13.5266 14.598 13.4429C14.8661 13.36 15.1298 13.337 15.3891 13.374L19.2224 14.1518C19.4817 14.2074 19.6947 14.3322 19.8613 14.5262C20.028 14.7211 20.1113 14.9481 20.1113 15.2074V19.7074C20.1113 20.0407 20.0002 20.3185 19.778 20.5407C19.5558 20.7629 19.278 20.874 18.9447 20.874Z" fill="white"/>
</svg>
