<svg width="55" height="55" viewBox="0 0 55 55" fill="none" xmlns="http://www.w3.org/2000/svg">
<path d="M27.0625 3C22.3034 3 17.6512 4.41124 13.6941 7.05526C9.73704 9.69928 6.65289 13.4573 4.83166 17.8542C3.01043 22.251 2.53391 27.0892 3.46237 31.7569C4.39082 36.4245 6.68255 40.7121 10.0478 44.0773C13.413 47.4425 17.7005 49.7342 22.3682 50.6626C27.0358 51.5911 31.874 51.1146 36.2708 49.2934C40.6677 47.4721 44.4257 44.388 47.0697 40.4309C49.7138 36.4739 51.125 31.8216 51.125 27.0625C51.125 20.6807 48.5899 14.5603 44.0773 10.0477C39.5647 5.53515 33.4443 3 27.0625 3ZM39.862 28.6008L19.237 38.9133C18.9749 39.0443 18.6837 39.106 18.391 39.0928C18.0983 39.0795 17.8138 38.9917 17.5646 38.8375C17.3155 38.6834 17.1098 38.4681 16.9672 38.2122C16.8246 37.9562 16.7499 37.668 16.75 37.375V16.75C16.7502 16.4571 16.8252 16.1692 16.9679 15.9134C17.1106 15.6577 17.3162 15.4427 17.5654 15.2887C17.8145 15.1348 18.0989 15.0471 18.3914 15.0339C18.684 15.0207 18.9751 15.0825 19.237 15.2134L39.862 25.5259C40.1472 25.6688 40.3869 25.8882 40.5544 26.1596C40.7219 26.431 40.8107 26.7436 40.8107 27.0625C40.8107 27.3814 40.7219 27.694 40.5544 27.9654C40.3869 28.2368 40.1472 28.4562 39.862 28.5991" fill="white"/>
</svg>
