<svg width="244" height="156" viewBox="0 0 244 156" fill="none" xmlns="http://www.w3.org/2000/svg">
<path opacity="0.3" d="M0.02005 35.3672C2.64343 36.426 5.9534 36.3512 8.77881 35.9594C11.665 35.5891 14.3689 34.8664 17.0713 34.0574C22.4866 32.428 27.9218 30.3802 35.2071 28.9854C49.8506 26.1249 61.9102 32.5244 67.0233 34.7877C69.3474 35.825 73.0372 37.5177 76.092 39.0647L78.0667 40.0651C73.2377 35.2708 67.9408 32.6994 62.5725 30.6719C56.6802 28.4123 50.5296 26.8882 43.5952 22.7913C38.9819 20.0284 35.6825 16.5642 34.0495 13.3258C32.3391 10.1076 32.3163 7.21283 32.8571 5.21068C33.3128 3.20092 34.5599 1.8708 35.3362 1.09732C36.1762 0.312441 36.8081 0.00305176 36.8081 0.00305176C37.8806 4.5006 41.5172 7.05052 45.3557 8.48462C49.2885 9.97704 53.6011 10.6541 58.8463 12.4585C64.1052 14.2413 67.8816 17.59 70.4199 21.0301C72.9825 24.479 74.2539 27.9609 75.1547 29.9136C75.9568 31.6748 77.1295 34.5494 77.9604 36.9928C78.4039 38.366 78.7989 39.5883 79.0632 40.4037C87.6711 41.4688 96.2283 42.7765 104.735 44.3268C101.15 40.7181 97.4162 38.3457 93.5655 36.1014C88.7835 33.2814 83.675 30.5742 79.2592 25.605C73.4488 18.8174 73.8438 12.8871 75.4692 9.65497C77.1477 6.32016 79.7027 5.075 79.7027 5.075C80.7858 8.94109 83.5778 11.4149 86.704 13.3575C89.8712 15.3229 93.3877 16.7975 97.0426 19.0977C100.688 21.38 102.428 24.5969 103.486 27.9038C104.55 31.1803 104.828 34.4631 105.22 36.3207C105.631 38.3647 106.4 42.1839 106.915 44.7364C108.378 45.0128 109.839 45.2943 111.299 45.5885C113.324 45.7216 115.746 46.0449 117.63 46.6029C118.388 46.8378 119.128 47.1096 119.848 47.4169C121.552 47.7973 123.26 48.1777 124.956 48.5898C128.743 49.523 132.506 50.5323 136.255 51.5835C133.304 49.1037 130.102 46.8409 126.685 44.8201C124.406 43.4443 122.128 42.1421 119.89 40.6953C117.612 39.1826 115.588 37.8613 113.16 35.423C110.305 32.4546 109.177 30.2243 108.485 28.2817C107.835 26.3734 107.715 24.7313 107.601 23.2034C107.501 21.7896 107.416 20.3669 107.349 19.3044C107.285 18.2976 107.319 17.656 107.319 17.656C111.941 19.5377 115.38 21.2735 119.239 22.8687L124.882 25.34L127.601 26.5877C128.566 27.0018 129.493 27.4748 130.375 28.0027C134.339 30.3282 135.942 33.5819 136.79 36.7836C137.637 39.9852 137.721 43.1374 138.063 44.9633C138.351 46.5813 138.875 49.2656 139.542 51.5835C139.639 51.9309 139.74 52.2631 139.846 52.5877C149.451 55.3791 158.84 58.6635 167.959 62.4223C163.402 56.4919 159.256 52.2593 155.021 48.1637C150.346 43.6167 145.672 39.2295 141.824 33.2294C141.177 32.215 140.609 31.2399 140.083 30.2509C138.839 27.8233 138.009 25.2626 137.615 22.643C137.229 19.9561 137.391 17.8931 137.596 16.1065C137.801 14.3199 138.117 12.8427 138.366 11.7839C138.489 11.2166 138.658 10.657 138.872 10.1089C143.335 13.9687 146.389 17.2883 150.01 20.3593C151.78 21.9037 153.533 23.3771 155.342 24.7478C157.391 26.3679 159.314 28.0959 161.099 29.9212C164.945 33.8583 166.291 38.1137 166.909 42.0546C167.499 45.9853 167.365 49.6169 167.576 51.7826C167.77 53.6846 168.088 56.8634 168.577 59.5693C168.791 60.8601 169.022 62.0355 169.209 62.9244C174.035 64.9532 178.764 67.1434 183.397 69.4951C187.21 71.4136 190.922 73.4778 194.56 75.6309C190.708 60.7663 181.983 54.1639 175.218 42.0292C170.464 33.5756 169.876 27.6109 170.494 23.5584C171.094 19.5339 172.999 17.5 172.999 17.5C178.913 27.0949 187.251 30.507 194.905 40.1463C202.476 49.8121 198.82 60.4214 197.975 64.9113C197.41 67.8277 196.167 73.3625 195.525 76.1964C202.932 80.6363 209.892 85.5742 216.336 90.9608C217.247 84.5816 215.517 79.005 213.554 73.772C211.314 67.6514 208.151 61.5803 207.782 53.1266C207.291 42.8319 210.563 36.5769 213.652 33.2192C216.772 29.8248 219.741 29.0742 219.741 29.0742C218.958 34.6204 220.1 39.0533 221.716 43.4164C222.571 45.572 223.501 47.9114 224.371 50.1088C225.312 52.4571 226.099 55.0058 226.986 57.3173C228.783 62.4666 228.505 67.5462 227.368 72.0475C226.232 76.5489 224.218 80.2121 223.156 82.3816C221.916 84.9318 220.486 87.4147 218.874 89.8158C218.356 90.5855 217.856 91.2753 217.405 91.8751C222.21 95.9495 226.679 100.29 230.782 104.868C232.528 106.843 234.204 108.863 235.81 110.929C235.538 106.657 235.611 102.877 235.697 99.3321C235.875 94.6405 236.082 90.3662 236.467 86.178C236.841 82.0051 237.362 77.8346 238.239 73.6959C239.033 69.7652 239.91 65.5884 241.546 60.9336C243.716 54.7421 246.767 49.8121 250.093 46.3023C253.408 42.7735 256.886 40.6978 259.721 39.5947C262.621 38.5055 264.832 38.3102 266.327 38.3749C267.796 38.4231 268.513 38.6665 268.513 38.6665C262.507 43.1197 260.544 48.5479 259.577 53.7556C258.607 59.0722 258.691 64.5056 257.543 71.5594C256.276 78.934 253.068 84.0275 250.121 88.6239C247.136 93.1418 244.12 96.9014 242.677 99.393C241.366 101.585 239.354 105.287 238.088 108.739C237.593 110.042 237.203 111.296 236.906 112.353C240.706 117.335 244.005 122.571 246.771 128.006C248.007 130.438 249.139 132.901 250.168 135.394C250.168 135.21 250.168 135.025 250.168 134.842C250.248 131.072 250.513 127.47 251.129 123.871C251.688 120.116 252.623 116.407 253.923 112.782C255.29 108.95 257.169 104.92 260.128 100.672C262.943 96.5983 266.689 93.0255 271.153 90.1569C274.909 87.7597 279.084 85.8587 283.532 84.5207C291.502 82.1319 298.204 81.9188 302.143 81.7451C305.675 81.56 311.32 81.6741 315.684 82.3791C320.109 83.0245 323 84.1682 323 84.1682C316.802 83.6851 310.363 85.0926 305.008 87.058C299.854 88.9672 295.053 91.4821 290.752 94.5264C282.33 100.372 276.906 106.921 270.825 115.939C262.896 127.918 259.1 135.124 256.154 139.892C255.027 141.844 254.059 143.384 253.327 144.541C254.187 147.629 254.811 150.76 255.194 153.914V153.923C255.232 154.271 255.103 154.618 254.835 154.887C254.567 155.156 254.182 155.325 253.765 155.357C253.348 155.389 252.934 155.281 252.612 155.058C252.29 154.835 252.088 154.515 252.048 154.167L252.036 154.051C251.764 151.66 251.343 149.282 250.775 146.927L249.938 146.451L248.214 145.804C247.07 145.348 245.877 144.983 244.651 144.715C243.405 144.426 242.244 144.098 240.967 143.917C236.004 143.05 231.149 142.776 226.372 142.707C216.802 142.564 207.448 143.215 196.026 142.516C180.801 141.604 171.703 138.39 166.735 135.468C161.737 132.473 160.73 129.939 160.73 129.939C177.609 132.358 187.691 127.977 205.585 127.342C223.606 126.581 236.952 134.794 242.313 138.196C244.452 139.464 247.579 141.604 249.922 143.685C248.439 138.656 246.479 133.734 244.063 128.964C243.556 127.93 243.025 126.906 242.469 125.891C240.191 123.932 237.27 122.492 234.107 121.664C229.269 120.32 224.192 120.041 219.17 120.242C214.048 120.415 209.296 121.1 203.229 121.566C197.872 121.947 192.374 122.418 186.096 122.696C169.387 123.572 158.386 121.323 152.525 118.651C149.551 117.331 147.754 116.014 146.698 115.022C145.643 114.031 145.307 113.418 145.307 113.418C154.652 114.4 162.094 113.151 169.443 111.572C176.832 109.977 184.216 107.856 194.355 106.662C196.821 106.375 199.309 106.24 201.798 106.257C203.071 106.265 204.047 106.286 205.049 106.336C206.137 106.376 207.197 106.437 208.303 106.52C212.518 106.821 216.677 107.532 220.695 108.637C226.416 110.246 231.696 112.789 236.227 116.118C236.313 116.176 236.407 116.245 236.493 116.31C234.063 112.837 231.426 109.47 228.582 106.211C225.81 103.05 222.827 100.022 219.706 97.0966C210.812 94.87 202.365 95.4825 194.651 96.5666C185.463 97.8688 176.709 100.151 164.963 100.893C158.225 101.318 151.83 101.479 146.735 100.809C141.585 100.175 137.621 98.901 134.927 97.4365C132.234 95.9719 130.806 94.4453 130.135 93.3269C129.463 92.2085 129.412 91.5745 129.412 91.5745C133.057 92.7157 136.768 92.7538 140.145 92.3607C143.546 91.9676 146.698 91.1688 149.867 90.2457C153.036 89.3226 156.198 88.2486 159.829 87.2545C161.597 86.7473 163.766 86.3175 165.534 85.8914C167.333 85.4755 169.293 85.0495 171.389 84.6551C179.757 83.0372 187.776 83.514 194.384 84.9087C201.004 86.2693 206.047 88.5415 209.025 89.8019C210.465 90.3738 212.318 91.2322 214.206 92.1946C206.954 86.0927 199.038 80.5667 190.561 75.6879C187.254 74.2602 182.999 73.9724 179.09 74.4466C174.357 75.0476 169.964 76.4335 165.773 78.1745C163.672 79.0278 161.603 79.9915 159.452 80.9805L156.004 82.5338L152.554 83.9818C147.95 85.8838 142.946 87.8112 136.969 89.3505C129.032 91.4161 121.804 91.8396 116.11 91.1853C110.371 90.5424 106.259 88.7926 103.653 87.1746C102.561 86.4397 101.557 85.6171 100.656 84.7185C100.083 84.0704 99.5906 83.3754 99.1859 82.6441C98.5692 81.5029 98.5191 80.8524 98.5191 80.8524C106.252 83.642 113.295 82.5769 119.339 80.5786C125.518 78.5371 131.133 75.5358 138.9 72.2314C142.571 70.6623 146.444 69.4453 150.444 68.6037C154.014 67.8049 158.04 67.1886 161.594 67.039C167.974 66.722 173.266 67.6248 176.696 68.3894C169.068 64.7451 161.183 61.4902 153.083 58.6424C146.144 58.9835 140.577 61.6209 135.725 64.6171C130.004 68.1675 123.852 72.8413 114.682 75.7754C108.581 77.7408 103.213 78.2315 98.996 77.9906C94.7792 77.7497 91.6211 76.8152 89.3684 75.7919C87.3526 74.8536 86.0508 73.8557 85.188 73.0264C84.15 73.3613 83.0805 73.6234 81.9904 73.8101C77.971 74.5265 74.6474 74.0218 72.4508 73.1482C70.2239 72.2821 68.9874 71.1283 68.275 70.2533C67.5626 69.3784 67.3636 68.7952 67.3636 68.7952C72.5906 68.9296 76.0783 66.4671 78.3417 63.6788C80.6552 60.8601 82.3671 57.3947 85.6513 53.677C88.4311 50.2065 93.3012 47.6857 97.9297 46.5762C99.8981 46.0844 101.923 45.7665 103.971 45.6278C98.7808 44.6514 93.5655 43.7706 88.3248 42.9853C82.5418 44.3217 78.6424 47.4638 75.2975 50.8024C71.5181 54.4948 68.0866 58.8909 61.1917 62.5212C56.6073 64.8783 52.1443 65.8788 48.564 65.856C44.9973 65.9726 42.2554 65.0787 40.3353 64.2329C36.4557 62.279 35.4258 59.9915 35.4258 59.9915C40.4265 59.7278 44.0038 57.7776 46.8064 55.4268C49.6455 53.0176 51.6552 50.1773 54.7282 47.2001C57.7663 44.214 62.0621 42.615 66.4355 41.7984C69.3672 41.2418 72.2002 41.1251 74.459 41.1061C73.2559 40.9616 72.0544 40.8094 70.8513 40.6725C65.0455 40.4442 59.8595 40.9197 54.8589 41.6209C46.9477 42.733 39.4573 44.4511 29.9892 45.1206C17.4267 46.0348 8.9368 43.9299 4.27032 41.0706C1.9614 39.6543 0.715759 38.1796 0.308655 37.0422C-0.113617 35.9505 0.02005 35.3672 0.02005 35.3672ZM99.6158 67.3268C104.062 65.028 107.996 62.2384 113.122 59.251C115.552 57.8267 118.206 56.6884 121.008 55.868C123.723 55.0533 126.54 54.5002 129.406 54.2197C133.226 53.8316 136.674 54.0307 139.358 54.3122C139.281 54.2412 139.199 54.1613 139.123 54.0916C134.27 52.641 129.376 51.2944 124.441 50.0518C122.327 49.5268 120.2 49.0374 118.072 48.5492C116.412 48.8896 114.836 49.4716 113.418 50.2686C110.931 51.6368 108.908 53.4386 107.082 55.3608C105.256 57.2831 103.614 59.374 101.676 61.574C100.632 62.7754 99.5108 63.9284 98.317 65.028C97.0612 66.1775 95.7295 67.2675 94.328 68.293C93.2188 69.1064 92.0477 69.8591 90.8221 70.5463C94.0941 69.8463 96.956 68.6861 99.6158 67.3268Z" fill="#FFEAEA"/>
</svg>
