<svg width="268" height="156" viewBox="0 0 268 156" fill="none" xmlns="http://www.w3.org/2000/svg">
<path opacity="0.3" d="M267.98 35.3672C265.357 36.426 262.047 36.3512 259.221 35.9594C256.335 35.5891 253.631 34.8664 250.929 34.0574C245.513 32.428 240.078 30.3802 232.793 28.9854C218.149 26.1249 206.09 32.5244 200.977 34.7877C198.653 35.825 194.963 37.5177 191.908 39.0647L189.933 40.0651C194.762 35.2708 200.059 32.6994 205.427 30.6719C211.32 28.4123 217.47 26.8882 224.405 22.7913C229.018 20.0284 232.318 16.5642 233.95 13.3258C235.661 10.1076 235.684 7.21283 235.143 5.21068C234.687 3.20092 233.44 1.8708 232.664 1.09732C231.824 0.312441 231.192 0.00305176 231.192 0.00305176C230.119 4.5006 226.483 7.05052 222.644 8.48462C218.711 9.97704 214.399 10.6541 209.154 12.4585C203.895 14.2413 200.118 17.59 197.58 21.0301C195.018 24.479 193.746 27.9609 192.845 29.9136C192.043 31.6748 190.871 34.5494 190.04 36.9928C189.596 38.366 189.201 39.5883 188.937 40.4037C180.329 41.4688 171.772 42.7765 163.265 44.3268C166.85 40.7181 170.584 38.3457 174.435 36.1014C179.216 33.2814 184.325 30.5742 188.741 25.605C194.551 18.8174 194.156 12.8871 192.531 9.65497C190.852 6.32016 188.297 5.075 188.297 5.075C187.214 8.94109 184.422 11.4149 181.296 13.3575C178.129 15.3229 174.612 16.7975 170.957 19.0977C167.312 21.38 165.572 24.5969 164.514 27.9038C163.45 31.1803 163.172 34.4631 162.78 36.3207C162.369 38.3647 161.6 42.1839 161.085 44.7364C159.622 45.0128 158.161 45.2943 156.701 45.5885C154.676 45.7216 152.254 46.0449 150.37 46.6029C149.612 46.8378 148.872 47.1096 148.152 47.4169C146.448 47.7973 144.74 48.1777 143.044 48.5898C139.257 49.523 135.494 50.5323 131.745 51.5835C134.696 49.1037 137.898 46.8409 141.315 44.8201C143.594 43.4443 145.872 42.1421 148.11 40.6953C150.388 39.1826 152.412 37.8613 154.84 35.423C157.695 32.4546 158.823 30.2243 159.515 28.2817C160.165 26.3734 160.285 24.7313 160.399 23.2034C160.499 21.7896 160.584 20.3669 160.651 19.3044C160.715 18.2976 160.681 17.656 160.681 17.656C156.059 19.5377 152.62 21.2735 148.761 22.8687L143.118 25.34L140.399 26.5877C139.434 27.0018 138.507 27.4748 137.625 28.0027C133.661 30.3282 132.058 33.5819 131.21 36.7836C130.363 39.9852 130.279 43.1374 129.937 44.9633C129.649 46.5813 129.125 49.2656 128.458 51.5835C128.361 51.9309 128.26 52.2631 128.154 52.5877C118.549 55.3791 109.16 58.6635 100.041 62.4223C104.598 56.4919 108.744 52.2593 112.979 48.1637C117.654 43.6167 122.328 39.2295 126.176 33.2294C126.823 32.215 127.391 31.2399 127.917 30.2509C129.161 27.8233 129.991 25.2626 130.385 22.643C130.771 19.9561 130.609 17.8931 130.404 16.1065C130.199 14.3199 129.883 12.8427 129.634 11.7839C129.511 11.2166 129.342 10.657 129.128 10.1089C124.665 13.9687 121.611 17.2883 117.99 20.3593C116.22 21.9037 114.467 23.3771 112.658 24.7478C110.609 26.3679 108.686 28.0959 106.901 29.9212C103.055 33.8583 101.709 38.1137 101.091 42.0546C100.501 45.9853 100.635 49.6169 100.424 51.7826C100.23 53.6846 99.912 56.8634 99.4229 59.5693C99.2087 60.8601 98.9778 62.0355 98.791 62.9244C93.9655 64.9532 89.2362 67.1434 84.6031 69.4951C80.7904 71.4136 77.0778 73.4778 73.4397 75.6309C77.292 60.7663 86.0174 54.1639 92.7816 42.0292C97.5362 33.5756 98.1241 27.6109 97.5059 23.5584C96.9059 19.5339 95.001 17.5 95.001 17.5C89.0874 27.0949 80.7494 30.507 73.0949 40.1463C65.524 49.8121 69.1804 60.4214 70.0249 64.9113C70.59 67.8277 71.8326 73.3625 72.4752 76.1964C65.0678 80.6363 58.1077 85.5742 51.6643 90.9608C50.7529 84.5816 52.4831 79.005 54.4457 73.772C56.6863 67.6514 59.8489 61.5803 60.218 53.1266C60.7087 42.8319 57.4367 36.5769 54.3485 33.2192C51.2284 29.8248 48.2586 29.0742 48.2586 29.0742C49.0425 34.6204 47.9001 39.0533 46.2839 43.4164C45.4287 45.572 44.499 47.9114 43.6286 50.1088C42.6883 52.4571 41.9015 55.0058 41.0144 57.3173C39.2173 62.4666 39.4953 67.5462 40.6316 72.0475C41.7678 76.5489 43.782 80.2121 44.8438 82.3816C46.0843 84.9318 47.5144 87.4147 49.126 89.8158C49.644 90.5855 50.1438 91.2753 50.5949 91.8751C45.7903 95.9495 41.3213 100.29 37.2183 104.868C35.4724 106.843 33.7964 108.863 32.1903 110.929C32.4622 106.657 32.3893 102.877 32.3027 99.3321C32.1249 94.6405 31.9184 90.3662 31.5325 86.178C31.1588 82.0051 30.6378 77.8346 29.7613 73.6959C28.9669 69.7652 28.0904 65.5884 26.4544 60.9336C24.2837 54.7421 21.2334 49.8121 17.9067 46.3023C14.5922 42.7735 11.1136 40.6978 8.27907 39.5947C5.37923 38.5055 3.16751 38.3102 1.67278 38.3749C0.203865 38.4231 -0.513123 38.6665 -0.513123 38.6665C5.49315 43.1197 7.45575 48.5479 8.42338 53.7556C9.39252 59.0722 9.30898 64.5056 10.4574 71.5594C11.7243 78.934 14.9325 84.0275 17.8794 88.6239C20.8643 93.1418 23.8796 96.9014 25.3227 99.393C26.6336 101.585 28.6463 105.287 29.9117 108.739C30.4069 110.042 30.7973 111.296 31.0935 112.353C27.294 117.335 23.9945 122.571 21.2289 128.006C19.9934 130.438 18.8612 132.901 17.8323 135.394C17.8323 135.21 17.8323 135.025 17.8323 134.842C17.7518 131.072 17.4875 127.47 16.8708 123.871C16.3119 120.116 15.3775 116.407 14.0772 112.782C12.7101 108.95 10.8311 104.92 7.87197 100.672C5.05748 96.5983 1.31147 93.0255 -3.15321 90.1569C-6.90895 87.7597 -11.0839 85.8587 -15.5318 84.5207C-23.5022 82.1319 -30.2042 81.9188 -34.1431 81.7451C-37.6749 81.56 -43.3196 81.6741 -47.6838 82.3791C-52.1088 83.0245 -54.9995 84.1682 -54.9995 84.1682C-48.8018 83.6851 -42.3626 85.0926 -37.008 87.058C-31.8536 88.9672 -27.0529 91.4821 -22.7518 94.5264C-14.3303 100.372 -8.90581 106.921 -2.8251 115.939C5.10429 127.918 8.90036 135.124 11.8458 139.892C12.9729 141.844 13.9405 143.384 14.6727 144.541C13.8127 147.629 13.1891 150.76 12.8058 153.914V153.923C12.7678 154.271 12.897 154.618 13.165 154.887C13.433 155.156 13.8179 155.325 14.2352 155.357C14.6517 155.389 15.0662 155.281 15.388 155.058C15.7097 154.835 15.9125 154.515 15.9517 154.167L15.9639 154.051C16.2358 151.66 16.6567 149.282 17.2247 146.927L18.0617 146.451L19.7858 145.804C20.9299 145.348 22.1231 144.983 23.3495 144.715C24.5951 144.426 25.7556 144.098 27.0331 143.917C31.9958 143.05 36.8507 142.776 41.628 142.707C51.198 142.564 60.5522 143.215 71.9739 142.516C87.1992 141.604 96.2967 138.39 101.265 135.468C106.263 132.473 107.27 129.939 107.27 129.939C90.3907 132.358 80.3088 127.977 62.4146 127.342C44.3942 126.581 31.0479 134.794 25.6873 138.196C23.5485 139.464 20.4207 141.604 18.0784 143.685C19.5615 138.656 21.5206 133.734 23.9373 128.964C24.4437 127.93 24.9748 126.906 25.5308 125.891C27.8093 123.932 30.7305 122.492 33.8931 121.664C38.7312 120.32 43.8079 120.041 48.8298 120.242C53.952 120.415 58.7036 121.1 64.7706 121.566C70.1282 121.947 75.6256 122.418 81.9038 122.696C98.6133 123.572 109.614 121.323 115.475 118.651C118.449 117.331 120.246 116.014 121.302 115.022C122.357 114.031 122.693 113.418 122.693 113.418C113.348 114.4 105.906 113.151 98.557 111.572C91.1684 109.977 83.7844 107.856 73.6448 106.662C71.1789 106.375 68.6912 106.24 66.2015 106.257C64.9286 106.265 63.9534 106.286 62.9508 106.336C61.8632 106.376 60.8029 106.437 59.697 106.52C55.4818 106.821 51.3229 107.532 47.3047 108.637C41.5842 110.246 36.3044 112.789 31.7725 116.118C31.6875 116.176 31.5933 116.245 31.5067 116.31C33.9372 112.837 36.5742 109.47 39.4178 106.211C42.1901 103.05 45.1735 100.022 48.2936 97.0966C57.1875 94.87 65.6349 95.4825 73.3486 96.5666C82.5373 97.8688 91.2915 100.151 103.037 100.893C109.775 101.318 116.17 101.479 121.265 100.809C126.415 100.175 130.379 98.901 133.073 97.4365C135.766 95.9719 137.194 94.4453 137.865 93.3269C138.537 92.2085 138.588 91.5745 138.588 91.5745C134.943 92.7157 131.232 92.7538 127.855 92.3607C124.454 91.9676 121.302 91.1688 118.133 90.2457C114.964 89.3226 111.802 88.2486 108.171 87.2545C106.403 86.7473 104.234 86.3175 102.466 85.8914C100.667 85.4755 98.7074 85.0495 96.6112 84.6551C88.2428 83.0372 80.2238 83.514 73.616 84.9087C66.996 86.2693 61.9528 88.5415 58.9755 89.8019C57.5354 90.3738 55.6822 91.2322 53.794 92.1946C61.046 86.0927 68.9618 80.5667 77.4394 75.6879C80.7463 74.2602 85.0011 73.9724 88.9096 74.4466C93.6429 75.0476 98.036 76.4335 102.227 78.1745C104.328 79.0278 106.397 79.9915 108.548 80.9805L111.996 82.5338L115.446 83.9818C120.05 85.8838 125.054 87.8112 131.031 89.3505C138.968 91.4161 146.196 91.8396 151.89 91.1853C157.629 90.5424 161.741 88.7926 164.347 87.1746C165.439 86.4397 166.443 85.6171 167.344 84.7185C167.917 84.0704 168.409 83.3754 168.814 82.6441C169.431 81.5029 169.481 80.8524 169.481 80.8524C161.748 83.642 154.705 82.5769 148.661 80.5786C142.482 78.5371 136.867 75.5358 129.1 72.2314C125.429 70.6623 121.556 69.4453 117.556 68.6037C113.986 67.8049 109.96 67.1886 106.406 67.039C100.026 66.722 94.7336 67.6248 91.3036 68.3894C98.9316 64.7451 106.817 61.4902 114.917 58.6424C121.856 58.9835 127.423 61.6209 132.275 64.6171C137.996 68.1675 144.148 72.8413 153.318 75.7754C159.419 77.7408 164.787 78.2315 169.004 77.9906C173.221 77.7497 176.379 76.8152 178.632 75.7919C180.647 74.8536 181.949 73.8557 182.812 73.0264C183.85 73.3613 184.92 73.6234 186.01 73.8101C190.029 74.5265 193.353 74.0218 195.549 73.1482C197.776 72.2821 199.013 71.1283 199.725 70.2533C200.437 69.3784 200.636 68.7952 200.636 68.7952C195.409 68.9296 191.922 66.4671 189.658 63.6788C187.345 60.8601 185.633 57.3947 182.349 53.677C179.569 50.2065 174.699 47.6857 170.07 46.5762C168.102 46.0844 166.077 45.7665 164.029 45.6278C169.219 44.6514 174.435 43.7706 179.675 42.9853C185.458 44.3217 189.358 47.4638 192.702 50.8024C196.482 54.4948 199.913 58.8909 206.808 62.5212C211.393 64.8783 215.856 65.8788 219.436 65.856C223.003 65.9726 225.745 65.0787 227.665 64.2329C231.544 62.279 232.574 59.9915 232.574 59.9915C227.574 59.7278 223.996 57.7776 221.194 55.4268C218.354 53.0176 216.345 50.1773 213.272 47.2001C210.234 44.214 205.938 42.615 201.565 41.7984C198.633 41.2418 195.8 41.1251 193.541 41.1061C194.744 40.9616 195.946 40.8094 197.149 40.6725C202.954 40.4442 208.14 40.9197 213.141 41.6209C221.052 42.733 228.543 44.4511 238.011 45.1206C250.573 46.0348 259.063 43.9299 263.73 41.0706C266.039 39.6543 267.284 38.1796 267.691 37.0422C268.114 35.9505 267.98 35.3672 267.98 35.3672ZM168.384 67.3268C163.938 65.028 160.004 62.2384 154.878 59.251C152.448 57.8267 149.794 56.6884 146.992 55.868C144.277 55.0533 141.46 54.5002 138.594 54.2197C134.774 53.8316 131.326 54.0307 128.642 54.3122C128.719 54.2412 128.801 54.1613 128.877 54.0916C133.73 52.641 138.624 51.2944 143.559 50.0518C145.673 49.5268 147.8 49.0374 149.928 48.5492C151.588 48.8896 153.164 49.4716 154.582 50.2686C157.069 51.6368 159.092 53.4386 160.918 55.3608C162.744 57.2831 164.386 59.374 166.324 61.574C167.368 62.7754 168.489 63.9284 169.683 65.028C170.939 66.1775 172.271 67.2675 173.672 68.293C174.781 69.1064 175.952 69.8591 177.178 70.5463C173.906 69.8463 171.044 68.6861 168.384 67.3268Z" fill="#FFEAEA"/>
</svg>
