<svg width="280" height="156" viewBox="0 0 280 156" fill="none" xmlns="http://www.w3.org/2000/svg">
<path opacity="0.3" d="M279.98 35.3672C277.357 36.426 274.047 36.3512 271.221 35.9594C268.335 35.5891 265.631 34.8664 262.929 34.0574C257.513 32.4281 252.078 30.3803 244.793 28.9855C230.149 26.1249 218.09 32.5244 212.977 34.7878C210.653 35.825 206.963 37.5177 203.908 39.0647L201.933 40.0651C206.762 35.2709 212.059 32.6994 217.427 30.6719C223.32 28.4123 229.47 26.8882 236.405 22.7913C241.018 20.0284 244.318 16.5643 245.95 13.3258C247.661 10.1077 247.684 7.21286 247.143 5.21071C246.687 3.20095 245.44 1.87083 244.664 1.09736C243.824 0.312471 243.192 0.00308228 243.192 0.00308228C242.119 4.50063 238.483 7.05055 234.644 8.48465C230.711 9.97707 226.399 10.6542 221.154 12.4585C215.895 14.2413 212.118 17.5901 209.58 21.0301C207.018 24.479 205.746 27.9609 204.845 29.9136C204.043 31.6749 202.871 34.5494 202.04 36.9928C201.596 38.366 201.201 39.5884 200.937 40.4037C192.329 41.4688 183.772 42.7765 175.265 44.3268C178.85 40.7182 182.584 38.3457 186.435 36.1014C191.216 33.2814 196.325 30.5743 200.741 25.605C206.551 18.8175 206.156 12.8871 204.531 9.655C202.852 6.32019 200.297 5.07503 200.297 5.07503C199.214 8.94112 196.422 11.415 193.296 13.3575C190.129 15.3229 186.612 16.7976 182.957 19.0977C179.312 21.3801 177.572 24.597 176.514 27.9039C175.45 31.1804 175.172 34.4632 174.78 36.3208C174.369 38.3648 173.6 42.1839 173.085 44.7364C171.622 45.0128 170.161 45.2943 168.701 45.5885C166.676 45.7216 164.254 46.045 162.37 46.6029C161.612 46.8379 160.872 47.1097 160.152 47.4169C158.448 47.7973 156.74 48.1777 155.044 48.5898C151.257 49.5231 147.494 50.5324 143.745 51.5835C146.696 49.1037 149.898 46.8409 153.315 44.8201C155.594 43.4443 157.872 42.1421 160.11 40.6953C162.388 39.1826 164.412 37.8614 166.84 35.423C169.695 32.4547 170.823 30.2243 171.515 28.2817C172.165 26.3734 172.285 24.7314 172.399 23.2034C172.499 21.7896 172.584 20.367 172.651 19.3044C172.715 18.2976 172.681 17.656 172.681 17.656C168.059 19.5377 164.62 21.2736 160.761 22.8687L155.118 25.34L152.399 26.5877C151.434 27.0018 150.507 27.4748 149.625 28.0028C145.661 30.3283 144.058 33.5819 143.21 36.7836C142.363 39.9853 142.279 43.1375 141.937 44.9634C141.649 46.5813 141.125 49.2657 140.458 51.5835C140.361 51.931 140.26 52.2632 140.154 52.5878C130.549 55.3791 121.16 58.6636 112.041 62.4223C116.598 56.4919 120.744 52.2594 124.979 48.1638C129.654 43.6168 134.328 39.2295 138.176 33.2294C138.823 32.215 139.391 31.2399 139.917 30.2509C141.161 27.8234 141.991 25.2626 142.385 22.643C142.771 19.9561 142.609 17.8931 142.404 16.1065C142.199 14.3199 141.883 12.8427 141.634 11.784C141.511 11.2167 141.342 10.657 141.128 10.1089C136.665 13.9687 133.611 17.2883 129.99 20.3594C128.22 21.9038 126.467 23.3772 124.658 24.7479C122.609 26.3679 120.686 28.0959 118.901 29.9212C115.055 33.8583 113.709 38.1137 113.091 42.0546C112.501 45.9854 112.635 49.6169 112.424 51.7826C112.23 53.6846 111.912 56.8634 111.423 59.5693C111.209 60.8601 110.978 62.0355 110.791 62.9244C105.965 64.9532 101.236 67.1434 96.6031 69.4951C92.7904 71.4136 89.0778 73.4779 85.4397 75.6309C89.292 60.7663 98.0174 54.1639 104.782 42.0293C109.536 33.5756 110.124 27.611 109.506 23.5585C108.906 19.5339 107.001 17.5 107.001 17.5C101.087 27.0949 92.7494 30.507 85.0949 40.1463C77.524 49.8122 81.1804 60.4214 82.0249 64.9113C82.59 67.8277 83.8326 73.3625 84.4752 76.1964C77.0678 80.6364 70.1077 85.5743 63.6643 90.9609C62.7529 84.5816 64.4831 79.005 66.4457 73.772C68.6863 67.6515 71.8489 61.5803 72.218 53.1267C72.7087 42.8319 69.4367 36.5769 66.3485 33.2193C63.2284 29.8249 60.2586 29.0742 60.2586 29.0742C61.0425 34.6204 59.9001 39.0533 58.2839 43.4164C57.4287 45.572 56.499 47.9114 55.6286 50.1089C54.6883 52.4572 53.9015 55.0058 53.0144 57.3174C51.2173 62.4667 51.4953 67.5462 52.6316 72.0476C53.7678 76.5489 55.782 80.2122 56.8438 82.3817C58.0843 84.9318 59.5144 87.4147 61.126 89.8159C61.644 90.5855 62.1438 91.2753 62.5949 91.8751C57.7903 95.9495 53.3213 100.29 49.2183 104.868C47.4724 106.843 45.7964 108.863 44.1903 110.929C44.4622 106.657 44.3893 102.877 44.3027 99.3321C44.1249 94.6406 43.9184 90.3662 43.5325 86.178C43.1588 82.0051 42.6378 77.8347 41.7613 73.696C40.9669 69.7652 40.0904 65.5885 38.4544 60.9337C36.2837 54.7421 33.2334 49.8122 29.9067 46.3024C26.5922 42.7736 23.1136 40.6979 20.2791 39.5947C17.3792 38.5055 15.1675 38.3102 13.6728 38.3749C12.2039 38.4231 11.4869 38.6665 11.4869 38.6665C17.4932 43.1197 19.4558 48.548 20.4234 53.7556C21.3925 59.0723 21.309 64.5056 22.4574 71.5594C23.7243 78.934 26.9325 84.0275 29.8794 88.624C32.8643 93.1418 35.8796 96.9014 37.3227 99.393C38.6336 101.585 40.6463 105.287 41.9117 108.739C42.4069 110.042 42.7973 111.296 43.0935 112.353C39.294 117.335 35.9945 122.571 33.2289 128.006C31.9934 130.438 30.8612 132.901 29.8323 135.394C29.8323 135.21 29.8323 135.025 29.8323 134.842C29.7518 131.072 29.4875 127.47 28.8708 123.871C28.3119 120.116 27.3775 116.407 26.0772 112.782C24.7101 108.95 22.8311 104.92 19.872 100.672C17.0575 96.5983 13.3115 93.0255 8.84679 90.157C5.09105 87.7597 0.916058 85.8588 -3.53185 84.5208C-11.5022 82.1319 -18.2042 81.9189 -22.1431 81.7451C-25.6749 81.56 -31.3196 81.6741 -35.6838 82.3791C-40.1088 83.0246 -42.9995 84.1683 -42.9995 84.1683C-36.8018 83.6852 -30.3626 85.0926 -25.008 87.058C-19.8536 88.9672 -15.0529 91.4822 -10.7518 94.5265C-2.33029 100.372 3.09419 106.921 9.1749 115.939C17.1043 127.918 20.9004 135.124 23.8458 139.893C24.9729 141.844 25.9405 143.385 26.6727 144.541C25.8127 147.629 25.1891 150.76 24.8058 153.914V153.923C24.7678 154.271 24.897 154.618 25.165 154.887C25.433 155.156 25.8179 155.325 26.2352 155.357C26.6517 155.389 27.0662 155.281 27.388 155.058C27.7097 154.835 27.9125 154.515 27.9517 154.167L27.9639 154.051C28.2358 151.66 28.6567 149.282 29.2247 146.927L30.0617 146.451L31.7858 145.804C32.9299 145.348 34.1231 144.983 35.3495 144.715C36.5951 144.426 37.7556 144.098 39.0331 143.917C43.9958 143.05 48.8507 142.776 53.628 142.707C63.198 142.564 72.5522 143.215 83.9739 142.516C99.1992 141.604 108.297 138.39 113.265 135.468C118.263 132.474 119.27 129.939 119.27 129.939C102.391 132.358 92.3088 127.977 74.4146 127.342C56.3942 126.581 43.0479 134.794 37.6873 138.196C35.5485 139.464 32.4207 141.604 30.0784 143.685C31.5615 138.656 33.5206 133.734 35.9373 128.964C36.4437 127.93 36.9748 126.906 37.5308 125.891C39.8093 123.932 42.7305 122.492 45.8931 121.664C50.7312 120.32 55.8079 120.041 60.8298 120.243C65.952 120.415 70.7036 121.1 76.7706 121.566C82.1282 121.947 87.6256 122.418 93.9038 122.696C110.613 123.572 121.614 121.323 127.475 118.651C130.449 117.331 132.246 116.014 133.302 115.022C134.357 114.031 134.693 113.418 134.693 113.418C125.348 114.4 117.906 113.151 110.557 111.572C103.168 109.977 95.7844 107.856 85.6448 106.662C83.1789 106.375 80.6912 106.24 78.2015 106.257C76.9286 106.265 75.9534 106.286 74.9508 106.336C73.8632 106.376 72.8029 106.437 71.697 106.52C67.4818 106.821 63.3229 107.532 59.3047 108.637C53.5842 110.246 48.3044 112.789 43.7725 116.118C43.6875 116.176 43.5933 116.245 43.5067 116.31C45.9372 112.837 48.5742 109.471 51.4178 106.211C54.1901 103.05 57.1735 100.022 60.2936 97.0967C69.1875 94.8701 77.6349 95.4825 85.3486 96.5666C94.5373 97.8689 103.291 100.151 115.037 100.893C121.775 101.318 128.17 101.479 133.265 100.809C138.415 100.175 142.379 98.901 145.073 97.4365C147.766 95.972 149.194 94.4453 149.865 93.3269C150.537 92.2086 150.588 91.5746 150.588 91.5746C146.943 92.7158 143.232 92.7538 139.855 92.3607C136.454 91.9677 133.302 91.1688 130.133 90.2457C126.964 89.3226 123.802 88.2486 120.171 87.2545C118.403 86.7474 116.234 86.3175 114.466 85.8915C112.667 85.4756 110.707 85.0495 108.611 84.6552C100.243 83.0372 92.2238 83.514 85.616 84.9088C78.996 86.2693 73.9528 88.5416 70.9755 89.8019C69.5354 90.3738 67.6822 91.2322 65.794 92.1946C73.046 86.0927 80.9618 80.5667 89.4394 75.688C92.7463 74.2602 97.0011 73.9724 100.91 74.4466C105.643 75.0476 110.036 76.4335 114.227 78.1745C116.328 79.0278 118.397 79.9915 120.548 80.9806L123.996 82.5338L127.446 83.9819C132.05 85.8839 137.054 87.8112 143.031 89.3505C150.968 91.4161 158.196 91.8396 163.89 91.1853C169.629 90.5424 173.741 88.7926 176.347 87.1747C177.439 86.4398 178.443 85.6171 179.344 84.7186C179.917 84.0705 180.409 83.3754 180.814 82.6441C181.431 81.503 181.481 80.8525 181.481 80.8525C173.748 83.6421 166.705 82.577 160.661 80.5786C154.482 78.5371 148.867 75.5358 141.1 72.2314C137.429 70.6623 133.556 69.4453 129.556 68.6037C125.986 67.8049 121.96 67.1887 118.406 67.039C112.026 66.722 106.734 67.6248 103.304 68.3894C110.932 64.7452 118.817 61.4902 126.917 58.6424C133.856 58.9835 139.423 61.6209 144.275 64.6172C149.996 68.1675 156.148 72.8413 165.318 75.7755C171.419 77.7408 176.787 78.2316 181.004 77.9906C185.221 77.7497 188.379 76.8152 190.632 75.7919C192.647 74.8536 193.949 73.8557 194.812 73.0265C195.85 73.3614 196.92 73.6235 198.01 73.8101C202.029 74.5265 205.353 74.0218 207.549 73.1482C209.776 72.2822 211.013 71.1283 211.725 70.2534C212.437 69.3785 212.636 68.7952 212.636 68.7952C207.409 68.9296 203.922 66.4672 201.658 63.6789C199.345 60.8601 197.633 57.3947 194.349 53.677C191.569 50.2065 186.699 47.6857 182.07 46.5763C180.102 46.0844 178.077 45.7665 176.029 45.6278C181.219 44.6514 186.435 43.7706 191.675 42.9853C197.458 44.3218 201.358 47.4638 204.702 50.8025C208.482 54.4948 211.913 58.8909 218.808 62.5212C223.393 64.8784 227.856 65.8788 231.436 65.856C235.003 65.9727 237.745 65.0787 239.665 64.233C243.544 62.279 244.574 59.9916 244.574 59.9916C239.574 59.7278 235.996 57.7777 233.194 55.4268C230.354 53.0176 228.345 50.1773 225.272 47.2001C222.234 44.214 217.938 42.6151 213.565 41.7985C210.633 41.2418 207.8 41.1252 205.541 41.1062C206.744 40.9616 207.946 40.8094 209.149 40.6725C214.954 40.4443 220.14 40.9198 225.141 41.621C233.052 42.733 240.543 44.4511 250.011 45.1206C262.573 46.0348 271.063 43.93 275.73 41.0707C278.039 39.6543 279.284 38.1796 279.691 37.0423C280.114 35.9505 279.98 35.3672 279.98 35.3672ZM180.384 67.3269C175.938 65.028 172.004 62.2384 166.878 59.2511C164.448 57.8268 161.794 56.6884 158.992 55.8681C156.277 55.0533 153.46 54.5002 150.594 54.2197C146.774 53.8317 143.326 54.0307 140.642 54.3122C140.719 54.2412 140.801 54.1614 140.877 54.0916C145.73 52.641 150.624 51.2944 155.559 50.0518C157.673 49.5269 159.8 49.0374 161.928 48.5492C163.588 48.8896 165.164 49.4717 166.582 50.2686C169.069 51.6368 171.092 53.4386 172.918 55.3609C174.744 57.2831 176.386 59.3741 178.324 61.574C179.368 62.7754 180.489 63.9284 181.683 65.028C182.939 66.1775 184.271 67.2675 185.672 68.2931C186.781 69.1065 187.952 69.8591 189.178 70.5463C185.906 69.8464 183.044 68.6861 180.384 67.3269Z" fill="#FFEAEA"/>
</svg>
